<svg id="Layer_1" enable-background="new 0 0 256 256" height="512" viewBox="0 0 256 256" width="512" xmlns="http://www.w3.org/2000/svg"><g><g><path d="m8 83.574v141.66c0 12.574 10.483 22.766 23.415 22.766h193.171c12.931 0 23.414-10.192 23.414-22.766v-141.66z" fill="#ffea92"/></g><g><path d="m224.585 31.724h-193.17c-12.932 0-23.415 10.193-23.415 22.766v29.083h240v-29.083c0-12.573-10.483-22.766-23.415-22.766z" fill="#4671c6"/></g><g><path d="m224.585 250h-193.17c-14.014 0-25.415-11.109-25.415-24.766v-141.661c0-1.104.896-2 2-2h240c1.104 0 2 .896 2 2v141.661c0 13.657-11.401 24.766-25.415 24.766zm-214.585-164.427v139.661c0 11.451 9.606 20.766 21.415 20.766h193.17c11.809 0 21.415-9.315 21.415-20.766v-139.661z" fill="#3762cc"/></g><g><path d="m248 85.573h-240c-1.104 0-2-.896-2-2v-29.083c0-13.656 11.401-24.766 25.415-24.766h193.17c14.014.001 25.415 11.11 25.415 24.766v29.083c0 1.105-.896 2-2 2zm-238-4h236v-27.083c0-11.45-9.606-20.766-21.415-20.766h-193.17c-11.809.001-21.415 9.316-21.415 20.766z" fill="#3762cc"/></g><g><path d="m126.777 64.915h-.327c-6.376 0-11.544-5.168-11.544-11.544v-33.827c.001-6.376 5.169-11.544 11.544-11.544h.327c6.376 0 11.544 5.168 11.544 11.544v33.827c0 6.375-5.168 11.544-11.544 11.544z" fill="#6bdddd"/></g><g><path d="m55.979 64.915h-.327c-6.376 0-11.544-5.168-11.544-11.544v-33.827c0-6.376 5.168-11.544 11.544-11.544h.327c6.376 0 11.544 5.168 11.544 11.544v33.827c0 6.375-5.169 11.544-11.544 11.544z" fill="#6bdddd"/></g><g><path d="m197.576 64.915h-.327c-6.376 0-11.544-5.168-11.544-11.544v-33.827c0-6.376 5.168-11.544 11.544-11.544h.327c6.376 0 11.544 5.168 11.544 11.544v33.827c0 6.375-5.169 11.544-11.544 11.544z" fill="#6bdddd"/></g><g><path d="m126.777 66.915h-.327c-7.468 0-13.544-6.076-13.544-13.544v-33.827c0-7.468 6.076-13.544 13.544-13.544h.327c7.468 0 13.544 6.076 13.544 13.544v33.827c0 7.468-6.076 13.544-13.544 13.544zm-.327-56.915c-5.263 0-9.544 4.281-9.544 9.544v33.827c0 5.263 4.281 9.544 9.544 9.544h.327c5.263 0 9.544-4.281 9.544-9.544v-33.827c0-5.263-4.281-9.544-9.544-9.544z" fill="#3762cc"/></g><g><path d="m55.979 66.915h-.326c-7.468 0-13.544-6.076-13.544-13.544v-33.827c-.001-7.468 6.076-13.544 13.543-13.544h.326c7.468 0 13.544 6.076 13.544 13.544v33.827c0 7.468-6.076 13.544-13.543 13.544zm-.327-56.915c-5.263 0-9.544 4.281-9.544 9.544v33.827c0 5.263 4.281 9.544 9.544 9.544h.326c5.263 0 9.544-4.281 9.544-9.544v-33.827c0-5.263-4.281-9.544-9.544-9.544z" fill="#3762cc"/></g><g><path d="m197.575 66.915h-.326c-7.468 0-13.544-6.076-13.544-13.544v-33.827c0-7.468 6.076-13.544 13.544-13.544h.326c7.468 0 13.544 6.076 13.544 13.544v33.827c0 7.468-6.076 13.544-13.544 13.544zm-.326-56.915c-5.263 0-9.544 4.281-9.544 9.544v33.827c0 5.263 4.281 9.544 9.544 9.544h.326c5.263 0 9.544-4.281 9.544-9.544v-33.827c0-5.263-4.281-9.544-9.544-9.544z" fill="#3762cc"/></g><g><path d="m137.496 93.864c-6.188-.765-12.593-.791-18.992.001v-.001c-27.345 3.844-46.38 18.614-54.697 36.375-1.387 2.962-1.387 6.379 0 9.341 8.316 17.758 27.347 32.531 54.697 36.375v-.001c6.187.766 12.593.792 18.992 0v.001c27.345-3.844 46.38-18.614 54.697-36.375 1.387-2.962 1.387-6.379 0-9.341-8.316-17.758-27.346-32.531-54.697-36.375z" fill="#f9a7a7"/></g><g><path d="m78.048 111.509c-2.426 7.358-3.699 15.268-3.699 23.4s1.273 16.042 3.699 23.4c3.57 3.159 7.877 6.249 13.057 8.986-5.35-9.119-8.503-20.302-8.503-32.386 0-12.085 3.152-23.267 8.503-32.386-5.18 2.737-9.487 5.827-13.057 8.986z" fill="#e0ebfc"/></g><g><path d="m177.952 158.309c2.426-7.358 3.699-15.268 3.699-23.4s-1.273-16.041-3.699-23.4c-3.57-3.159-7.877-6.249-13.057-8.986 5.35 9.119 8.503 20.302 8.503 32.386 0 12.085-3.152 23.267-8.503 32.386 5.179-2.737 9.487-5.827 13.057-8.986z" fill="#e0ebfc"/></g><g><path d="m156.54 138.986h-57.08c-2.252 0-4.077-1.825-4.077-4.077 0-2.252 1.825-4.077 4.077-4.077h57.08c2.252 0 4.077 1.825 4.077 4.077 0 2.252-1.825 4.077-4.077 4.077z" fill="#e0ebfc"/></g><g><path d="m127.994 178.538c-3.256 0-6.507-.199-9.735-.599-25.951-3.647-46.972-17.668-56.264-37.512-1.643-3.507-1.643-7.53 0-11.038 9.292-19.843 30.313-33.864 56.23-37.507 6.498-.805 13.053-.804 19.516-.004.012.002.022.002.033.004 25.918 3.644 46.938 17.665 56.23 37.508 1.643 3.507 1.643 7.53 0 11.038-9.292 19.843-30.313 33.864-56.23 37.507-3.252.403-6.518.603-9.78.603zm.009-83.259c-3.093 0-6.184.189-9.253.569-24.541 3.449-44.416 16.624-53.132 35.238-1.138 2.429-1.138 5.216 0 7.645 8.716 18.614 28.591 31.789 53.164 35.243 6.107.753 12.333.753 18.468-.005 24.541-3.449 44.416-16.624 53.132-35.238 1.138-2.429 1.138-5.216 0-7.645-8.714-18.609-28.582-31.782-53.147-35.241-3.064-.376-6.149-.566-9.232-.566z" fill="#3762cc"/></g><g><path d="m156.54 140.986h-57.08c-3.351 0-6.077-2.727-6.077-6.077s2.727-6.077 6.077-6.077h57.08c3.351 0 6.077 2.727 6.077 6.077s-2.726 6.077-6.077 6.077zm-57.08-8.154c-1.146 0-2.077.932-2.077 2.077s.932 2.077 2.077 2.077h57.08c1.146 0 2.077-.932 2.077-2.077s-.932-2.077-2.077-2.077z" fill="#3762cc"/></g><g><path d="m111.691 146.506c-2.177 0-3.941-1.765-3.941-3.941v-15.312c0-2.177 1.765-3.941 3.941-3.941 2.177 0 3.941 1.765 3.941 3.941v15.312c.001 2.177-1.764 3.941-3.941 3.941z" fill="#f9cfcf"/></g><g><path d="m128 146.506c-2.177 0-3.941-1.765-3.941-3.941v-15.312c0-2.177 1.765-3.941 3.941-3.941 2.177 0 3.941 1.765 3.941 3.941v15.312c0 2.177-1.764 3.941-3.941 3.941z" fill="#f9cfcf"/></g><g><path d="m144.309 146.506c-2.177 0-3.941-1.765-3.941-3.941v-15.312c0-2.177 1.765-3.941 3.941-3.941 2.177 0 3.941 1.765 3.941 3.941v15.312c0 2.177-1.765 3.941-3.941 3.941z" fill="#f9cfcf"/></g><g><path d="m111.691 148.507c-3.276 0-5.941-2.665-5.941-5.941v-15.313c0-3.275 2.665-5.94 5.941-5.94s5.941 2.665 5.941 5.94v15.313c.001 3.276-2.664 5.941-5.941 5.941zm0-23.194c-1.07 0-1.941.87-1.941 1.94v15.313c0 1.07.871 1.941 1.941 1.941s1.941-.871 1.941-1.941v-15.313c.001-1.07-.87-1.94-1.941-1.94z" fill="#3762cc"/></g><g><path d="m128 148.507c-3.276 0-5.941-2.665-5.941-5.941v-15.313c0-3.275 2.665-5.94 5.941-5.94s5.941 2.665 5.941 5.94v15.313c0 3.276-2.665 5.941-5.941 5.941zm0-23.194c-1.07 0-1.941.87-1.941 1.94v15.313c0 1.07.871 1.941 1.941 1.941s1.941-.871 1.941-1.941v-15.313c0-1.07-.871-1.94-1.941-1.94z" fill="#3762cc"/></g><g><path d="m144.309 148.507c-3.276 0-5.941-2.665-5.941-5.941v-15.313c0-3.275 2.665-5.94 5.941-5.94s5.941 2.665 5.941 5.94v15.313c0 3.276-2.665 5.941-5.941 5.941zm0-23.194c-1.07 0-1.941.87-1.941 1.94v15.313c0 1.07.871 1.941 1.941 1.941s1.941-.871 1.941-1.941v-15.313c0-1.07-.871-1.94-1.941-1.94z" fill="#3762cc"/></g><g><path d="m94.443 209.014c-1.546-1.096-3.438-2.038-5.621-2.799-2.128-.741-4.535-1.427-7.137-2.036-2.04-.515-3.526-.912-4.418-1.182-.828-.25-1.662-.604-2.479-1.051-.75-.41-1.341-.898-1.755-1.45-.372-.498-.554-1.083-.554-1.788 0-1.155.588-2.138 1.797-3.004 1.297-.929 3.062-1.399 5.246-1.399 2.345 0 4.033.414 5.017 1.23 1.056.876 1.981 2.132 2.772 3.77.705 1.32 1.358 2.259 1.995 2.872.744.717 1.797 1.081 3.128 1.081 1.468 0 2.708-.563 3.688-1.673.948-1.074 1.429-2.306 1.429-3.663 0-1.363-.352-2.769-1.045-4.181-.687-1.394-1.774-2.733-3.233-3.979-1.451-1.239-3.29-2.242-5.464-2.982-2.156-.733-4.732-1.105-7.657-1.105-3.652 0-6.887.558-9.612 1.659-2.787 1.126-4.955 2.772-6.443 4.892-1.497 2.132-2.256 4.598-2.256 7.33 0 2.865.726 5.31 2.156 7.266 1.403 1.92 3.319 3.454 5.695 4.558 2.284 1.062 5.145 1.999 8.509 2.786 2.424.555 4.383 1.084 5.822 1.574 1.319.449 2.403 1.101 3.221 1.936.749.767 1.113 1.755 1.113 3.024 0 1.607-.717 2.922-2.19 4.021-1.543 1.15-3.609 1.734-6.141 1.734-1.841 0-3.324-.285-4.411-.846-1.084-.561-1.929-1.272-2.511-2.116-.635-.918-1.239-2.089-1.792-3.47-.535-1.373-1.206-2.438-1.996-3.167-.868-.801-1.938-1.208-3.177-1.208-1.489 0-2.739.509-3.717 1.512-.97.996-1.461 2.208-1.461 3.604 0 2.132.713 4.336 2.118 6.552 1.388 2.188 3.219 3.962 5.447 5.277 3.095 1.799 7.048 2.712 11.75 2.712 3.917 0 7.365-.665 10.248-1.975 2.929-1.332 5.191-3.21 6.725-5.583 1.534-2.375 2.312-5.083 2.312-8.051 0-2.475-.455-4.611-1.353-6.35-.896-1.739-2.163-3.196-3.765-4.332z" fill="#f9a7a7"/></g><g><path d="m140.566 185.676c-1.692 0-3.074.582-4.106 1.729-1.003 1.116-1.512 2.773-1.512 4.925v22.84c0 3.691-.69 6.449-2.052 8.198-1.302 1.672-3.637 2.521-6.939 2.521-2.431 0-4.318-.427-5.612-1.269-1.282-.833-2.152-1.977-2.66-3.499-.539-1.618-.813-3.684-.813-6.14v-22.651c0-2.131-.515-3.784-1.529-4.91-1.041-1.158-2.448-1.745-4.183-1.745-1.672 0-3.048.587-4.089 1.745-1.015 1.126-1.529 2.779-1.529 4.91v22.149c0 3.559.395 6.673 1.174 9.258.799 2.653 2.078 4.866 3.802 6.578s3.968 2.991 6.671 3.799c2.638.789 5.811 1.189 9.429 1.189 3.063 0 5.787-.375 8.097-1.116 2.35-.754 4.441-1.969 6.221-3.615 2.071-1.938 3.502-4.224 4.252-6.797.725-2.488 1.092-5.616 1.092-9.296v-22.149c0-2.158-.529-3.82-1.572-4.939-1.064-1.138-2.457-1.715-4.142-1.715z" fill="#f9a7a7"/></g><g><path d="m193.63 187.355c-.97-1.114-2.291-1.679-3.928-1.679-1.598 0-2.894.566-3.854 1.684-.921 1.073-1.388 2.64-1.388 4.657v24.069l-16.094-24.352c-.504-.798-.992-1.565-1.466-2.3-.505-.786-1.012-1.441-1.508-1.949-.535-.547-1.165-.988-1.871-1.311-.726-.331-1.589-.498-2.566-.498-1.26 0-2.447.355-3.527 1.056-1.09.705-1.883 1.633-2.368 2.784-.385.984-.571 2.265-.571 3.915v35.532c0 1.98.485 3.539 1.44 4.632.99 1.134 2.311 1.709 3.927 1.709 1.564 0 2.871-.565 3.883-1.679.984-1.087 1.484-2.655 1.484-4.662v-23.623l15.674 24.031c.506.739 1.014 1.463 1.521 2.169.544.759 1.143 1.433 1.779 2.001.68.607 1.424 1.059 2.214 1.343.777.279 1.652.42 2.6.42 2.75 0 6.027-1.226 6.027-7.063v-36.224c0-2.019-.474-3.588-1.408-4.662z" fill="#f9a7a7"/></g><g><path d="m80.277 237.304c-5.061 0-9.352-1.004-12.756-2.983-2.512-1.481-4.571-3.476-6.13-5.934-1.612-2.543-2.43-5.108-2.43-7.624 0-1.907.701-3.636 2.028-4.999 1.35-1.385 3.13-2.116 5.149-2.116 1.734 0 3.302.602 4.533 1.738 1.015.937 1.856 2.252 2.503 3.91.491 1.227 1.022 2.262 1.574 3.061.394.57.994 1.066 1.784 1.476.55.284 1.603.623 3.492.623 2.091 0 3.755-.45 4.945-1.338 1.221-.91 1.386-1.732 1.386-2.417 0-.947-.291-1.366-.544-1.626-.595-.608-1.414-1.094-2.435-1.44-1.38-.469-3.271-.979-5.624-1.519-3.5-.817-6.493-1.8-8.905-2.921-2.687-1.249-4.863-2.996-6.468-5.192-1.686-2.305-2.541-5.146-2.541-8.445 0-3.151.881-6.004 2.619-8.479 1.714-2.441 4.181-4.325 7.331-5.598 2.966-1.197 6.452-1.805 10.361-1.805 3.144 0 5.937.408 8.301 1.212 2.418.823 4.476 1.952 6.119 3.355 1.667 1.423 2.921 2.976 3.729 4.615.83 1.691 1.251 3.395 1.251 5.064 0 1.832-.667 3.557-1.93 4.986-1.356 1.537-3.15 2.35-5.187 2.35-.224 0-.442-.008-.656-.023 1.42.634 2.699 1.352 3.82 2.146.001 0 .001.001.001.001 1.864 1.322 3.34 3.02 4.386 5.045s1.576 4.471 1.576 7.268c0 3.359-.886 6.433-2.633 9.137-1.743 2.698-4.293 4.824-7.576 6.317-3.141 1.43-6.868 2.155-11.073 2.155zm-14.137-19.657c-.955 0-1.681.288-2.284.907-.609.626-.894 1.328-.894 2.208 0 1.746.608 3.59 1.808 5.481 1.216 1.918 2.822 3.474 4.773 4.625 2.774 1.613 6.39 2.435 10.734 2.435 3.631 0 6.8-.604 9.42-1.795 2.575-1.172 4.552-2.803 5.873-4.848 1.322-2.046 1.992-4.39 1.992-6.966 0-2.152-.38-3.98-1.13-5.432s-1.809-2.669-3.146-3.618c-1.392-.986-3.115-1.842-5.124-2.542-2.063-.718-4.396-1.383-6.933-1.977-2.105-.53-3.622-.937-4.542-1.215-.962-.29-1.925-.698-2.862-1.213-.999-.546-1.805-1.221-2.392-2.003-.634-.846-.954-1.851-.954-2.988 0-1.82.886-3.378 2.632-4.63 1.644-1.177 3.801-1.773 6.411-1.773 2.864 0 4.923.554 6.294 1.691 1.276 1.059 2.386 2.553 3.296 4.44.559 1.041 1.104 1.84 1.582 2.301.359.346.944.521 1.74.521.893 0 1.588-.316 2.188-.996.624-.708.928-1.473.928-2.34 0-1.054-.282-2.164-.84-3.299-.565-1.146-1.486-2.271-2.737-3.34-1.257-1.072-2.875-1.951-4.81-2.609-1.948-.663-4.308-.999-7.013-.999-3.394 0-6.376.509-8.863 1.514-2.423.979-4.292 2.388-5.556 4.188-1.256 1.788-1.893 3.867-1.893 6.18 0 2.432.596 4.479 1.771 6.085 1.201 1.645 2.858 2.965 4.924 3.926 2.165 1.006 4.896 1.897 8.121 2.651 2.476.566 4.501 1.115 6.011 1.628 1.621.552 2.969 1.37 4.007 2.432 1.117 1.144 1.684 2.631 1.684 4.422 0 2.25-1.008 4.143-2.995 5.624-1.896 1.414-4.364 2.131-7.336 2.131-2.162 0-3.955-.36-5.329-1.069-1.38-.714-2.47-1.642-3.239-2.757-.721-1.043-1.395-2.344-2.003-3.863-.424-1.089-.939-1.927-1.495-2.44-.5-.463-1.078-.678-1.819-.678zm13.383-21.342c-1.758 0-3.132.345-4.082 1.025-.961.688-.961 1.172-.961 1.378 0 .337.078.487.155.59.236.315.622.625 1.113.894.695.382 1.4.682 2.097.892.861.261 2.317.65 4.329 1.157 2.158.505 4.203 1.068 6.079 1.675-.115-.094-.226-.193-.334-.297-.791-.762-1.566-1.864-2.371-3.37-.697-1.44-1.454-2.483-2.286-3.174-.278-.232-1.2-.77-3.739-.77z" fill="#3762cc"/></g><g><path d="m126.617 237.304c-3.814 0-7.18-.428-10.002-1.272-3.021-.903-5.547-2.349-7.507-4.296-1.962-1.949-3.411-4.445-4.308-7.42-.835-2.771-1.259-6.08-1.259-9.836v-22.148c0-2.642.688-4.744 2.044-6.249 1.414-1.573 3.342-2.406 5.574-2.406 2.293 0 4.254.833 5.67 2.408 1.354 1.503 2.042 3.605 2.042 6.247v22.651c0 2.241.239 4.094.71 5.507.363 1.09.952 1.87 1.853 2.455.951.618 2.515.945 4.522.945 1.824 0 4.235-.304 5.361-1.749 1.066-1.37 1.63-3.78 1.63-6.97v-22.84c0-2.661.681-4.768 2.024-6.263 1.408-1.565 3.342-2.393 5.594-2.393 2.229 0 4.167.813 5.602 2.352 1.4 1.503 2.11 3.623 2.11 6.304v22.148c0 3.87-.395 7.187-1.172 9.856-.852 2.922-2.469 5.512-4.806 7.698-2.002 1.852-4.347 3.214-6.976 4.058-2.504.805-5.433 1.213-8.706 1.213zm-15.457-49.628c-1.111 0-1.938.344-2.602 1.082-.675.749-1.017 1.951-1.017 3.573v22.148c0 3.364.366 6.285 1.089 8.682.702 2.331 1.811 4.262 3.296 5.736 1.488 1.478 3.451 2.589 5.835 3.302 2.45.732 5.43 1.104 8.855 1.104 2.857 0 5.375-.344 7.485-1.021 2.07-.664 3.912-1.733 5.474-3.179 1.798-1.681 3.042-3.665 3.69-5.888.671-2.306 1.012-5.245 1.012-8.737v-22.148c0-1.636-.349-2.839-1.035-3.576-.678-.726-1.554-1.079-2.677-1.079-1.132 0-1.965.339-2.619 1.067-.653.727-.999 1.968-.999 3.588v22.84c0 4.146-.832 7.318-2.474 9.427-1.701 2.185-4.566 3.292-8.518 3.292-2.824 0-5.079-.536-6.703-1.592-1.652-1.074-2.818-2.603-3.467-4.543-.607-1.822-.915-4.101-.915-6.772v-22.651c0-1.622-.342-2.824-1.015-3.571-.654-.731-1.536-1.084-2.695-1.084z" fill="#3762cc"/></g><g><path d="m189.011 237.304c-1.181 0-2.283-.181-3.276-.538-1.033-.371-1.998-.954-2.87-1.733-.746-.666-1.443-1.449-2.072-2.328-.515-.716-1.03-1.452-1.545-2.203l-12.023-18.434v16.896c0 2.518-.674 4.538-2.002 6.005-1.389 1.528-3.243 2.336-5.365 2.336-2.187 0-4.065-.827-5.434-2.394-1.283-1.468-1.934-3.469-1.934-5.947v-35.532c0-1.904.231-3.424.709-4.644.66-1.568 1.712-2.809 3.145-3.735 1.408-.912 2.961-1.376 4.613-1.376 1.264 0 2.406.228 3.395.678.933.426 1.764 1.008 2.473 1.732.589.603 1.181 1.365 1.761 2.266.476.739.967 1.512 1.475 2.314l12.402 18.767v-17.416c0-2.509.629-4.514 1.87-5.96 1.339-1.558 3.195-2.381 5.371-2.381 2.208 0 4.088.817 5.436 2.365.001 0 .001.001.002.001 1.26 1.45 1.898 3.46 1.898 5.975v36.224c-.002 8.179-5.615 9.062-8.029 9.062zm-23.787-33.964c.663 0 1.299.331 1.675.907l15.674 24.031c.473.69.973 1.401 1.471 2.096.459.641.958 1.204 1.486 1.675.487.436 1.012.756 1.559.953.558.2 1.204.302 1.923.302 1.875 0 4.027-.575 4.027-5.063v-36.224c0-1.501-.317-2.659-.918-3.35-.589-.677-1.357-.991-2.418-.991-1.016 0-1.758.313-2.337.987-.591.689-.904 1.85-.904 3.354v24.069c0 .883-.579 1.661-1.424 1.915-.846.256-1.758-.075-2.245-.813l-16.094-24.352c-.522-.827-1.008-1.59-1.479-2.32-.435-.676-.857-1.226-1.257-1.635-.361-.369-.79-.669-1.271-.889-.463-.21-1.048-.317-1.736-.317-.867 0-1.688.247-2.439.733-.758.491-1.285 1.106-1.613 1.884-.268.688-.414 1.76-.414 3.138v35.532c0 1.481.318 2.598.946 3.315.611.7 1.38 1.025 2.421 1.025 1.005 0 1.769-.325 2.402-1.023.64-.706.965-1.823.965-3.317v-23.622c0-.885.582-1.665 1.43-1.917.188-.056.38-.083.57-.083z" fill="#3762cc"/></g></g></svg>